<svg xmlns="http://www.w3.org/2000/svg" width="104" height="135.417" viewBox="0 0 104 135.417">
  <g id="Grupo_57" data-name="Grupo 57" transform="translate(-18 -23.646)">
    <g id="gimnasio" transform="translate(31.77 23.646)">
      <g id="Grupo_43" data-name="Grupo 43" transform="translate(0 0)">
        <path id="Trazado_1009" data-name="Trazado 1009" d="M73.233,20.619l-4.672-4.672,4.672-4.672a2.2,2.2,0,0,0,0-3.114L67,1.932a2.2,2.2,0,0,0-3.114,0L59.217,6.6,54.546,1.932a6.614,6.614,0,0,0-9.343,0L43.38,3.754a6.608,6.608,0,0,0-7.521,1.292L32.745,8.161a2.2,2.2,0,0,0,0,3.114l10.9,10.9L22.177,43.645l-10.9-10.9a2.2,2.2,0,0,0-3.114,0L5.047,35.859a6.617,6.617,0,0,0-1.289,7.518L1.933,45.2a6.614,6.614,0,0,0,0,9.343L6.6,59.217,1.933,63.889a2.2,2.2,0,0,0,0,3.114l6.229,6.229a2.2,2.2,0,0,0,3.114,0l4.672-4.672,4.672,4.672a6.615,6.615,0,0,0,9.343,0l1.822-1.822a6.608,6.608,0,0,0,7.521-1.292L42.421,67a2.2,2.2,0,0,0,0-3.114l-10.9-10.9L52.989,31.52l10.9,10.9a2.2,2.2,0,0,0,3.114,0l3.114-3.114a6.617,6.617,0,0,0,1.289-7.518l1.825-1.825A6.615,6.615,0,0,0,73.233,20.619ZM65.447,6.6l3.114,3.114-3.114,3.115L62.332,9.718ZM9.719,68.561,6.6,65.446l3.114-3.114,3.114,3.114Zm17.129,1.557a2.2,2.2,0,0,1-3.114,0L5.047,51.431a2.2,2.2,0,0,1,0-3.114L6.6,46.759l21.8,21.8Zm10.9-4.671L36.192,67a2.2,2.2,0,0,1-3.114,0L8.162,42.088a2.2,2.2,0,0,1,0-3.114l1.557-1.557ZM28.406,49.874l-3.114-3.114L46.76,25.291,49.874,28.4ZM67,36.191l-1.557,1.557L48.317,20.619h0l-10.9-10.9,1.557-1.557a2.2,2.2,0,0,1,3.114,0L67,33.077A2.2,2.2,0,0,1,67,36.191Zm3.114-9.343L68.561,28.4,46.76,6.6l1.557-1.557a2.2,2.2,0,0,1,3.114,0L70.118,23.733A2.2,2.2,0,0,1,70.118,26.848Z" transform="translate(-0.001 0)" fill="#a2a2a2"/>
      </g>
    </g>
    <text id="Gimnasio-2" data-name="Gimnasio" transform="translate(70 153.063)" fill="#84c226" font-size="26" font-family="Lato-Light, Lato" font-weight="300"><tspan x="-51.935" y="0">Gimnasio</tspan></text>
  </g>
</svg>
