<svg id="Grupo_57" data-name="Grupo 57" xmlns="http://www.w3.org/2000/svg" width="90" height="115.006" viewBox="0 0 90 115.006">
  <g id="gimnasio" transform="translate(12.569 0)">
    <g id="Grupo_43" data-name="Grupo 43" transform="translate(0 0)">
      <path id="Trazado_1009" data-name="Trazado 1009" d="M62.32,17.546l-3.976-3.976L62.32,9.6a1.874,1.874,0,0,0,0-2.65l-5.3-5.3a1.875,1.875,0,0,0-2.65,0L50.393,5.62,46.418,1.644a5.629,5.629,0,0,0-7.951,0L36.916,3.195a5.623,5.623,0,0,0-6.4,1.1l-2.65,2.65a1.875,1.875,0,0,0,0,2.65l9.276,9.276-18.27,18.27L9.6,27.865a1.875,1.875,0,0,0-2.65,0L4.3,30.515a5.631,5.631,0,0,0-1.1,6.4L1.645,38.466a5.629,5.629,0,0,0,0,7.951L5.62,50.393,1.645,54.369a1.874,1.874,0,0,0,0,2.65l5.3,5.3a1.875,1.875,0,0,0,2.65,0l3.976-3.976,3.976,3.976a5.629,5.629,0,0,0,7.951,0l1.551-1.551a5.623,5.623,0,0,0,6.4-1.1l2.65-2.65a1.875,1.875,0,0,0,0-2.65l-9.276-9.276,18.27-18.27L54.369,36.1a1.875,1.875,0,0,0,2.65,0l2.65-2.65a5.631,5.631,0,0,0,1.1-6.4L62.32,25.5A5.629,5.629,0,0,0,62.32,17.546ZM55.694,5.62l2.65,2.65-2.65,2.65-2.65-2.65ZM8.271,58.344l-2.65-2.65,2.65-2.65,2.65,2.65Zm14.577,1.325a1.876,1.876,0,0,1-2.65,0L4.3,43.767a1.876,1.876,0,0,1,0-2.65L5.62,39.791,24.173,58.344Zm9.276-3.975L30.8,57.019a1.873,1.873,0,0,1-2.65,0l-21.2-21.2a1.873,1.873,0,0,1,0-2.65l1.325-1.325ZM24.173,42.442l-2.65-2.65,18.27-18.27,2.65,2.65ZM57.019,30.8l-1.325,1.325L41.117,17.547h0L31.841,8.27l1.325-1.325a1.873,1.873,0,0,1,2.65,0l21.2,21.2A1.873,1.873,0,0,1,57.019,30.8Zm2.65-7.951-1.325,1.325L39.792,5.62l1.325-1.325a1.876,1.876,0,0,1,2.65,0l15.9,15.9A1.876,1.876,0,0,1,59.67,22.847Z" transform="translate(-0.001 0)" fill="#f0c310"/>
    </g>
  </g>
  <text id="Gimnasio-2" data-name="Gimnasio" transform="translate(45 110.006)" font-size="22" font-family="Lato-Regular, Lato"><tspan x="-44.924" y="0">Gimnasio</tspan></text>
</svg>
