<svg xmlns="http://www.w3.org/2000/svg" width="186" height="126.131" viewBox="0 0 186 126.131">
  <g id="Grupo_54" data-name="Grupo 54" transform="translate(-31.979 -30.853)">
    <g id="divertido" transform="translate(86.245 30.853)">
      <g id="Grupo_53" data-name="Grupo 53" transform="translate(0 0)">
        <path id="Trazado_1017" data-name="Trazado 1017" d="M72.854,52.455s0,0,0-.006V22.673h2.267A2.267,2.267,0,0,0,77.045,19.2L65.708,1.065a2.267,2.267,0,0,0-3.845,0L59.823,4.33a53.714,53.714,0,0,0-42.256,0l-2.04-3.264a2.267,2.267,0,0,0-3.845,0L.345,19.2a2.267,2.267,0,0,0,1.923,3.469H4.535V52.449s0,0,0,.006a11.332,11.332,0,0,0,6.8,20.4H27.207v2.267a2.267,2.267,0,1,0,4.535,0V72.855H45.648v2.267a2.267,2.267,0,1,0,4.535,0V72.855H66.053a11.332,11.332,0,0,0,6.8-20.4ZM63.786,6.545l7.246,11.593H56.54ZM68.32,22.673V50.182H59.251V22.673ZM57.389,8.223l-2.63,4.208a40.009,40.009,0,0,0-32.129,0L20,8.224A48.831,48.831,0,0,1,57.389,8.223ZM22.673,31.742V22.673H24.94A2.267,2.267,0,0,0,26.863,19.2l-1.8-2.881a35.463,35.463,0,0,1,27.265,0l-1.8,2.881a2.267,2.267,0,0,0,1.923,3.469h2.267v9.069Zm32.044,4.534v4.837H22.673V36.276ZM13.6,6.545l7.246,11.593H6.358Zm4.535,16.127V50.182H9.069V22.673ZM27.207,68.32H11.336a6.8,6.8,0,1,1,0-13.6H27.207Zm18.44,0H31.742V63.786H45.648Zm0-9.069H31.742V54.717H45.648ZM22.673,50.182V45.648H54.717v4.535ZM66.053,68.32H50.182v-13.6H66.053a6.8,6.8,0,1,1,0,13.6Z" transform="translate(0 0)" fill="#a2a2a2"/>
      </g>
    </g>
    <text id="Juegos_Infantiles" data-name="Juegos Infantiles" transform="translate(124.979 150.984)" fill="#84c226" font-size="26" font-family="Lato-Light, Lato" font-weight="300"><tspan x="-92.82" y="0">Juegos Infantiles</tspan></text>
  </g>
</svg>
