<svg xmlns="http://www.w3.org/2000/svg" width="162" height="107.104" viewBox="0 0 162 107.104">
  <g id="Grupo_279" data-name="Grupo 279" transform="translate(-635 -2132)">
    <g id="divertido" transform="translate(683.881 2132)">
      <g id="Grupo_53" data-name="Grupo 53" transform="translate(0 0)">
        <path id="Trazado_1017" data-name="Trazado 1017" d="M62,44.639s0,0,0-.005V19.294h1.929a1.93,1.93,0,0,0,1.636-2.952L55.917.907a1.929,1.929,0,0,0-3.272,0L50.908,3.685a45.709,45.709,0,0,0-35.959,0L13.213.907a1.929,1.929,0,0,0-3.272,0L.293,16.342a1.929,1.929,0,0,0,1.636,2.952H3.859V44.633s0,0,0,.005A9.643,9.643,0,0,0,9.647,62H23.153v1.929a1.929,1.929,0,1,0,3.859,0V62H38.845v1.929a1.929,1.929,0,1,0,3.859,0V62H56.21A9.643,9.643,0,0,0,62,44.639ZM54.28,5.57l6.166,9.865H48.115Zm3.859,13.724V42.7H50.422V19.294ZM48.837,7,46.6,10.579a34.047,34.047,0,0,0-27.341,0L17.02,7A41.554,41.554,0,0,1,48.837,7ZM19.294,27.012V19.294h1.929a1.93,1.93,0,0,0,1.636-2.952L21.327,13.89a30.178,30.178,0,0,1,23.2,0L43,16.342a1.93,1.93,0,0,0,1.636,2.952h1.929v7.718ZM46.563,30.87v4.116H19.294V30.87ZM11.576,5.57l6.166,9.865H5.411Zm3.859,13.724V42.7H7.718V19.294Zm7.718,38.845H9.647a5.788,5.788,0,1,1,0-11.576H23.153Zm15.692,0H27.012V54.28H38.845Zm0-7.718H27.012V46.563H38.845ZM19.294,42.7V38.845H46.563V42.7ZM56.21,58.139H42.7V46.563H56.21a5.788,5.788,0,1,1,0,11.576Z" transform="translate(0 0)" fill="#f0c310"/>
      </g>
    </g>
    <text id="Juegos_Infantiles" data-name="Juegos Infantiles" transform="translate(716 2234.104)" font-size="22" font-family="Lato-Regular, Lato"><tspan x="-80.223" y="0">Juegos Infantiles</tspan></text>
  </g>
</svg>
