<svg xmlns="http://www.w3.org/2000/svg" width="80.885" height="139.646" viewBox="0 0 80.885 139.646">
  <g id="Grupo_56" data-name="Grupo 56" transform="translate(-12.648 -20)">
    <text id="Piscina" transform="translate(51.648 153.646)" fill="#84c226" font-size="26" font-family="Lato-Light, Lato" font-weight="300"><tspan x="-38.337" y="0">Piscina</tspan></text>
    <g id="agua" transform="translate(14 20)">
      <g id="Grupo_45" data-name="Grupo 45">
        <g id="Grupo_44" data-name="Grupo 44">
          <g id="Grupo_33" data-name="Grupo 33" transform="translate(0.002)">
            <g id="Grupo_32" data-name="Grupo 32">
              <path id="Trazado_1003" data-name="Trazado 1003" d="M107.8,48.883l-3.35,2.007a4.387,4.387,0,0,1-4.567-.026l-3.131-1.923a9.594,9.594,0,0,0-9.986-.056l-3.347,2.005a4.388,4.388,0,0,1-4.567-.026l-3.131-1.923a9.74,9.74,0,0,0-.97-.522V11.22a5.682,5.682,0,1,1,11.361,0v6.123h5.3V11.22a10.983,10.983,0,1,0-21.962,0V32.758H47.167V11.22a5.681,5.681,0,1,1,11.36,0v6.123h5.3V11.22a10.983,10.983,0,1,0-21.962,0V50.584l-.512.307a4.388,4.388,0,0,1-4.567-.026l-3.11-1.911L30.946,53.6l3.11,1.911a9.588,9.588,0,0,0,9.979.056l3.347-2.005a4.394,4.394,0,0,1,4.574.026l3.131,1.923a9.587,9.587,0,0,0,9.979.056l3.346-2.005a4.394,4.394,0,0,1,4.574.026l3.131,1.923a9.589,9.589,0,0,0,9.98.056l3.347-2.005a4.394,4.394,0,0,1,4.573.026l3.131,1.923a9.588,9.588,0,0,0,9.979.056l3.35-2.007ZM69.447,47.591a9.634,9.634,0,0,0-3.716,1.294l-3.347,2.005a4.388,4.388,0,0,1-4.567-.026l-3.131-1.923a9.594,9.594,0,0,0-7.521-1.1V38.174H69.447Z" transform="translate(-30.946)" fill="#a2a2a2"/>
            </g>
          </g>
          <g id="Grupo_35" data-name="Grupo 35" transform="translate(0 55.647)">
            <g id="Grupo_34" data-name="Grupo 34">
              <path id="Trazado_1004" data-name="Trazado 1004" d="M107.8,364.669l-3.35,2.007a4.388,4.388,0,0,1-4.567-.026l-3.131-1.924a9.6,9.6,0,0,0-9.986-.056l-3.347,2.005a4.388,4.388,0,0,1-4.567-.026l-3.131-1.924a9.594,9.594,0,0,0-9.986-.056l-3.347,2.005a4.387,4.387,0,0,1-4.567-.026l-3.131-1.924a9.6,9.6,0,0,0-9.986-.056l-3.347,2.005a4.388,4.388,0,0,1-4.567-.025l-3.11-1.911-2.732,4.642,3.111,1.911a9.588,9.588,0,0,0,9.979.056l3.347-2.005a4.393,4.393,0,0,1,4.573.026l3.131,1.924a9.589,9.589,0,0,0,9.979.056l3.347-2.005a4.392,4.392,0,0,1,4.573.026l3.131,1.924a9.589,9.589,0,0,0,9.98.056l3.347-2.005a4.393,4.393,0,0,1,4.573.026l3.131,1.924a9.588,9.588,0,0,0,9.979.056l3.35-2.007Z" transform="translate(-30.944 -363.297)" fill="#a2a2a2"/>
            </g>
          </g>
          <g id="Grupo_46" data-name="Grupo 46" transform="translate(0 65.233)">
            <g id="Grupo_34-2" data-name="Grupo 34">
              <path id="Trazado_1004-2" data-name="Trazado 1004" d="M107.8,364.669l-3.35,2.007a4.388,4.388,0,0,1-4.567-.026l-3.131-1.924a9.6,9.6,0,0,0-9.986-.056l-3.347,2.005a4.388,4.388,0,0,1-4.567-.026l-3.131-1.924a9.594,9.594,0,0,0-9.986-.056l-3.347,2.005a4.387,4.387,0,0,1-4.567-.026l-3.131-1.924a9.6,9.6,0,0,0-9.986-.056l-3.347,2.005a4.388,4.388,0,0,1-4.567-.025l-3.11-1.911-2.732,4.642,3.111,1.911a9.588,9.588,0,0,0,9.979.056l3.347-2.005a4.393,4.393,0,0,1,4.573.026l3.131,1.924a9.589,9.589,0,0,0,9.979.056l3.347-2.005a4.392,4.392,0,0,1,4.573.026l3.131,1.924a9.589,9.589,0,0,0,9.98.056l3.347-2.005a4.393,4.393,0,0,1,4.573.026l3.131,1.924a9.588,9.588,0,0,0,9.979.056l3.35-2.007Z" transform="translate(-30.944 -363.297)" fill="#a2a2a2"/>
            </g>
          </g>
        </g>
      </g>
    </g>
  </g>
</svg>
