<svg xmlns="http://www.w3.org/2000/svg" width="70.683" height="118.605" viewBox="0 0 70.683 118.605">
  <g id="Grupo_277" data-name="Grupo 277" transform="translate(-680 -1936)">
    <text id="Piscina" transform="translate(714 2049.605)" font-size="22" font-family="Lato-Regular, Lato"><tspan x="-33.473" y="0">Piscina</tspan></text>
    <g id="agua" transform="translate(683.002 1936)">
      <g id="Grupo_45" data-name="Grupo 45">
        <g id="Grupo_44" data-name="Grupo 44">
          <g id="Grupo_33" data-name="Grupo 33" transform="translate(0.002)">
            <g id="Grupo_32" data-name="Grupo 32">
              <path id="Trazado_1003" data-name="Trazado 1003" d="M96.343,41.6l-2.851,1.708a3.733,3.733,0,0,1-3.886-.022l-2.664-1.637a8.165,8.165,0,0,0-8.5-.048L75.6,43.307a3.734,3.734,0,0,1-3.886-.022l-2.664-1.637a8.288,8.288,0,0,0-.825-.444V9.548a4.835,4.835,0,1,1,9.668,0v5.21H82.4V9.548a9.347,9.347,0,1,0-18.689,0V27.877H44.749V9.548a4.835,4.835,0,1,1,9.667,0v5.21h4.511V9.548a9.347,9.347,0,1,0-18.689,0v33.5l-.435.261a3.734,3.734,0,0,1-3.886-.022L33.27,41.659l-2.324,3.95,2.647,1.626a8.159,8.159,0,0,0,8.492.048l2.848-1.706a3.739,3.739,0,0,1,3.892.022l2.664,1.637a8.159,8.159,0,0,0,8.492.048l2.848-1.706a3.739,3.739,0,0,1,3.892.022l2.664,1.637a8.16,8.16,0,0,0,8.492.048l2.848-1.706a3.74,3.74,0,0,1,3.892.022l2.665,1.637a8.159,8.159,0,0,0,8.492.048l2.851-1.708ZM63.71,40.5a8.2,8.2,0,0,0-3.162,1.1L57.7,43.307a3.734,3.734,0,0,1-3.886-.022l-2.664-1.637a8.164,8.164,0,0,0-6.4-.938V32.486H63.71Z" transform="translate(-30.946)" fill="#f0c310"/>
            </g>
          </g>
          <g id="Grupo_35" data-name="Grupo 35" transform="translate(0 47.355)">
            <g id="Grupo_34" data-name="Grupo 34">
              <path id="Trazado_1004" data-name="Trazado 1004" d="M96.343,364.464l-2.851,1.708a3.734,3.734,0,0,1-3.886-.022l-2.665-1.637a8.166,8.166,0,0,0-8.5-.048L75.6,366.173a3.734,3.734,0,0,1-3.886-.022l-2.665-1.637a8.164,8.164,0,0,0-8.5-.048L57.7,366.172a3.733,3.733,0,0,1-3.886-.022l-2.665-1.637a8.165,8.165,0,0,0-8.5-.048L39.8,366.172a3.734,3.734,0,0,1-3.886-.022l-2.647-1.626-2.325,3.95,2.647,1.626a8.16,8.16,0,0,0,8.492.048l2.848-1.706a3.739,3.739,0,0,1,3.892.022l2.665,1.637a8.16,8.16,0,0,0,8.492.048l2.848-1.706a3.737,3.737,0,0,1,3.892.022l2.665,1.637a8.16,8.16,0,0,0,8.492.047l2.848-1.706a3.738,3.738,0,0,1,3.892.022l2.665,1.637a8.16,8.16,0,0,0,8.492.048l2.851-1.708Z" transform="translate(-30.944 -363.297)" fill="#f0c310"/>
            </g>
          </g>
          <g id="Grupo_46" data-name="Grupo 46" transform="translate(0 55.512)">
            <g id="Grupo_34-2" data-name="Grupo 34">
              <path id="Trazado_1004-2" data-name="Trazado 1004" d="M96.343,364.464l-2.851,1.708a3.734,3.734,0,0,1-3.886-.022l-2.665-1.637a8.166,8.166,0,0,0-8.5-.048L75.6,366.173a3.734,3.734,0,0,1-3.886-.022l-2.665-1.637a8.164,8.164,0,0,0-8.5-.048L57.7,366.172a3.733,3.733,0,0,1-3.886-.022l-2.665-1.637a8.165,8.165,0,0,0-8.5-.048L39.8,366.172a3.734,3.734,0,0,1-3.886-.022l-2.647-1.626-2.325,3.95,2.647,1.626a8.16,8.16,0,0,0,8.492.048l2.848-1.706a3.739,3.739,0,0,1,3.892.022l2.665,1.637a8.16,8.16,0,0,0,8.492.048l2.848-1.706a3.737,3.737,0,0,1,3.892.022l2.665,1.637a8.16,8.16,0,0,0,8.492.047l2.848-1.706a3.738,3.738,0,0,1,3.892.022l2.665,1.637a8.16,8.16,0,0,0,8.492.048l2.851-1.708Z" transform="translate(-30.944 -363.297)" fill="#f0c310"/>
            </g>
          </g>
        </g>
      </g>
    </g>
  </g>
</svg>
