<svg xmlns="http://www.w3.org/2000/svg" width="130" height="131.778" viewBox="0 0 130 131.778">
  <g id="Grupo_55" data-name="Grupo 55" transform="translate(-22 -17.048)">
    <g id="equipo" transform="translate(46.513 17.048)">
      <g id="Grupo_40" data-name="Grupo 40">
        <g id="Grupo_39" data-name="Grupo 39">
          <path id="Trazado_1007" data-name="Trazado 1007" d="M66.5,53.058A8.716,8.716,0,0,0,63.35,40.615,26.9,26.9,0,0,0,52.369,22.274,10.939,10.939,0,0,0,44.538,13.5a8.727,8.727,0,1,0-14.606,0A10.939,10.939,0,0,0,22.1,22.274,26.9,26.9,0,0,0,11.12,40.615,8.715,8.715,0,0,0,7.969,53.058,10.926,10.926,0,0,0,0,63.561v8.727A2.182,2.182,0,0,0,2.182,74.47H28.363a2.182,2.182,0,0,0,2.182-2.182V69.237a29.324,29.324,0,0,0,6.691.724,29.325,29.325,0,0,0,6.691-.724v3.052a2.182,2.182,0,0,0,2.182,2.182H72.288a2.182,2.182,0,0,0,2.182-2.182V63.561A10.926,10.926,0,0,0,66.5,53.058Zm-2.94-4.769A4.363,4.363,0,1,1,59.2,43.926,4.368,4.368,0,0,1,63.561,48.289ZM37.235,4.363a4.363,4.363,0,1,1-4.363,4.363A4.368,4.368,0,0,1,37.235,4.363ZM26.326,24a6.553,6.553,0,0,1,6.545-6.545H41.6A6.553,6.553,0,0,1,48.144,24v6.545H26.326ZM15.272,43.926a4.363,4.363,0,1,1-4.363,4.363A4.368,4.368,0,0,1,15.272,43.926ZM26.181,70.107H4.363V63.561a6.553,6.553,0,0,1,6.545-6.545h8.727a6.553,6.553,0,0,1,6.545,6.545Zm17.745-6.545v1.164a24.212,24.212,0,0,1-6.691.872,24.211,24.211,0,0,1-6.691-.872V63.561a10.926,10.926,0,0,0-7.969-10.5,8.72,8.72,0,0,0-6.86-13.485,22.883,22.883,0,0,1,6.247-11.495v4.647a2.182,2.182,0,0,0,2.182,2.182H50.325a2.182,2.182,0,0,0,2.182-2.182V28.079a22.883,22.883,0,0,1,6.247,11.495,8.72,8.72,0,0,0-6.86,13.485A10.926,10.926,0,0,0,43.926,63.561Zm26.181,6.545H48.289V63.561a6.553,6.553,0,0,1,6.545-6.545h8.727a6.553,6.553,0,0,1,6.545,6.545Z" fill="#a2a2a2"/>
        </g>
      </g>
      <g id="Grupo_42" data-name="Grupo 42" transform="translate(28.508 39.417)">
        <g id="Grupo_41" data-name="Grupo 41">
          <path id="Trazado_1008" data-name="Trazado 1008" d="M212.814,271.639a2.182,2.182,0,0,0-3.085,0l-7.184,7.184L199.724,276a2.182,2.182,0,1,0-3.085,3.085L201,283.451a2.182,2.182,0,0,0,3.085,0l8.727-8.727A2.182,2.182,0,0,0,212.814,271.639Z" transform="translate(-196 -271)" fill="#a2a2a2"/>
        </g>
      </g>
    </g>
    <text id="Salón_social" data-name="Salón social" transform="translate(87 142.826)" fill="#84c226" font-size="26" font-family="Lato-Light, Lato" font-weight="300"><tspan x="-64.922" y="0">Salón social</tspan></text>
  </g>
</svg>
