<svg xmlns="http://www.w3.org/2000/svg" width="114" height="111.909" viewBox="0 0 114 111.909">
  <g id="Grupo_278" data-name="Grupo 278" transform="translate(-350 -2127)">
    <g id="equipo" transform="translate(372.711 2127)">
      <g id="Grupo_40" data-name="Grupo 40">
        <g id="Grupo_39" data-name="Grupo 39">
          <path id="Trazado_1007" data-name="Trazado 1007" d="M56.591,45.152A7.417,7.417,0,0,0,53.91,34.563a22.894,22.894,0,0,0-9.345-15.608,9.309,9.309,0,0,0-6.664-7.47,7.426,7.426,0,1,0-12.429,0,9.309,9.309,0,0,0-6.664,7.47A22.894,22.894,0,0,0,9.463,34.563,7.417,7.417,0,0,0,6.782,45.152,9.3,9.3,0,0,0,0,54.09v7.426a1.857,1.857,0,0,0,1.857,1.857H24.136a1.857,1.857,0,0,0,1.857-1.857v-2.6a24.954,24.954,0,0,0,5.694.616,24.955,24.955,0,0,0,5.694-.616v2.6a1.857,1.857,0,0,0,1.857,1.857H61.516a1.857,1.857,0,0,0,1.857-1.857V54.09A9.3,9.3,0,0,0,56.591,45.152Zm-2.5-4.058a3.713,3.713,0,1,1-3.713-3.713A3.717,3.717,0,0,1,54.09,41.093Zm-22.4-37.38a3.713,3.713,0,1,1-3.713,3.713A3.717,3.717,0,0,1,31.686,3.713ZM22.4,20.423a5.576,5.576,0,0,1,5.57-5.57H35.4a5.576,5.576,0,0,1,5.57,5.57v5.57H22.4ZM13,37.38a3.713,3.713,0,1,1-3.713,3.713A3.717,3.717,0,0,1,13,37.38Zm9.283,22.279H3.713V54.09a5.576,5.576,0,0,1,5.57-5.57H16.71a5.576,5.576,0,0,1,5.57,5.57Zm15.1-5.57v.991a20.6,20.6,0,0,1-5.694.742,20.6,20.6,0,0,1-5.694-.742V54.09a9.3,9.3,0,0,0-6.782-8.938,7.421,7.421,0,0,0-5.837-11.475,19.473,19.473,0,0,1,5.316-9.782v3.955a1.857,1.857,0,0,0,1.857,1.857H42.826a1.857,1.857,0,0,0,1.857-1.857V23.895A19.473,19.473,0,0,1,50,33.676a7.421,7.421,0,0,0-5.837,11.475A9.3,9.3,0,0,0,37.38,54.09Zm22.279,5.57H41.093V54.09a5.576,5.576,0,0,1,5.57-5.57H54.09a5.576,5.576,0,0,1,5.57,5.57Z" fill="#f0c310"/>
        </g>
      </g>
      <g id="Grupo_42" data-name="Grupo 42" transform="translate(24.26 33.543)">
        <g id="Grupo_41" data-name="Grupo 41">
          <path id="Trazado_1008" data-name="Trazado 1008" d="M210.309,271.543a1.857,1.857,0,0,0-2.626,0l-6.114,6.114-2.4-2.4a1.857,1.857,0,0,0-2.626,2.626l3.713,3.713a1.857,1.857,0,0,0,2.626,0l7.426-7.426A1.857,1.857,0,0,0,210.309,271.543Z" transform="translate(-196 -271)" fill="#f0c310"/>
        </g>
      </g>
    </g>
    <text id="Salón_social" data-name="Salón social" transform="translate(407 2233.909)" font-size="22" font-family="Lato-Regular, Lato"><tspan x="-56.1" y="0">Salón social</tspan></text>
  </g>
</svg>
